<?xml version="1.0" standalone="no"?>
<!DOCTYPE svg PUBLIC "-//W3C//DTD SVG 20010904//EN"
 "http://www.w3.org/TR/2001/REC-SVG-20010904/DTD/svg10.dtd">
<svg version="1.0" xmlns="http://www.w3.org/2000/svg"
 width="1383.000000pt" height="1383.000000pt" viewBox="0 0 1383.000000 1383.000000"
 preserveAspectRatio="xMidYMid meet">
<metadata>
Created by potrace 1.14, written by Peter Selinger 2001-2017
</metadata>
<g transform="translate(0.000000,1383.000000) scale(0.100000,-0.100000)"
fill="#000000" stroke="none">
<path d="M877 9878 c-13 -37 -179 -1039 -173 -1045 4 -5 311 -9 682 -11 371
-1 674 -6 674 -11 0 -4 -34 -205 -75 -447 -41 -241 -75 -449 -75 -461 0 -15
14 -29 48 -49 274 -160 818 -508 900 -578 24 -20 47 -36 51 -36 4 0 14 33 21
73 7 39 73 390 146 779 74 389 134 712 134 718 0 7 212 10 634 10 348 0 653 3
678 6 l44 6 88 502 c48 275 90 513 93 529 l6 27 -1936 0 c-1539 0 -1936 -3
-1940 -12z"/>
<path d="M4822 8097 c-469 -985 -852 -1796 -852 -1801 0 -11 42 -58 220 -246
150 -158 302 -328 471 -525 52 -60 99 -110 104 -110 4 0 44 77 86 170 43 94
97 211 120 260 23 50 82 178 131 285 49 107 103 224 120 260 16 36 80 173 140
305 61 132 126 274 145 315 19 41 82 179 140 305 58 127 127 277 154 333 27
57 49 105 49 107 0 2 27 60 60 130 33 70 60 129 60 131 0 2 22 50 49 107 27
57 61 132 77 167 15 35 29 59 31 54 1 -5 23 -169 48 -364 25 -195 63 -492 84
-660 22 -168 62 -485 90 -705 67 -530 88 -691 113 -870 22 -166 22 -163 32
-255 12 -106 12 -105 55 -68 58 51 355 311 367 323 6 5 41 37 79 70 38 33 150
132 249 219 100 87 183 160 185 162 3 3 -8 88 -23 184 -4 25 -33 216 -41 278
-3 17 -7 47 -10 65 -17 110 -127 860 -132 897 -3 25 -7 53 -9 63 -2 10 -13 84
-24 165 -12 81 -23 158 -25 172 -23 141 -55 369 -55 394 1 17 -48 356 -107
754 l-107 722 -612 0 -611 0 -851 -1793z"/>
<path d="M8730 8450 c-139 -792 -251 -1442 -247 -1446 5 -5 923 579 1062 676
l40 28 26 183 c27 194 33 201 44 44 9 -144 15 -175 30 -175 8 0 83 33 167 73
84 41 280 134 436 207 l282 133 0 61 c1 34 -9 416 -22 850 l-22 788 -24 9
c-13 5 -358 9 -771 9 l-747 0 -254 -1440z"/>
<path d="M11855 9235 c-147 -361 -265 -658 -262 -661 3 -3 115 28 249 70 614
191 1041 296 1487 366 107 16 196 31 197 33 1 1 10 45 19 97 9 52 43 235 76
407 32 172 59 319 59 328 0 13 -83 15 -778 15 l-779 0 -268 -655z"/>
<path d="M13335 8949 c-1531 -264 -3005 -854 -4460 -1787 -721 -462 -1440
-1017 -2080 -1606 -349 -322 -723 -699 -980 -991 -49 -55 -98 -110 -109 -122
-20 -24 -15 -46 6 -25 7 7 21 12 32 12 20 0 86 46 196 138 36 30 83 69 105 87
51 42 176 146 192 160 12 11 24 20 148 114 44 33 85 64 90 68 157 123 633 448
955 650 916 576 1872 1057 2825 1423 190 73 460 169 545 194 133 40 227 69
240 76 9 4 31 11 50 15 19 4 40 11 45 15 6 4 30 12 55 18 25 6 70 18 100 27
30 9 80 23 110 31 78 19 304 80 370 99 30 9 78 20 107 25 28 4 56 11 62 14 9
6 110 29 206 46 28 5 66 14 85 19 78 23 471 89 810 136 186 26 743 95 767 95
7 0 13 7 13 16 0 18 -240 1065 -246 1076 -8 13 -60 8 -239 -23z"/>
<path d="M72 8041 c-40 -262 -72 -499 -72 -527 l0 -51 79 -7 c113 -9 361 -51
546 -92 666 -148 1359 -413 2001 -767 322 -178 1108 -715 1444 -987 193 -156
850 -751 997 -901 201 -207 264 -269 284 -279 20 -11 21 -10 14 6 -4 11 -10
28 -13 39 -2 11 -9 26 -15 33 -5 7 -17 25 -26 41 -9 16 -29 49 -46 72 -16 24
-34 51 -40 60 -32 52 -191 282 -268 389 -295 411 -655 829 -1018 1185 -248
243 -304 293 -794 703 -508 426 -1242 879 -1895 1169 -352 156 -840 330 -1086
385 -19 5 -23 -13 -92 -471z"/>
<path d="M13020 7719 c-109 -11 -416 -63 -545 -92 l-100 -22 -362 -1795 c-199
-987 -362 -1803 -363 -1812 0 -17 29 -18 464 -18 255 0 477 3 493 6 l29 6 107
606 c59 334 116 659 127 722 11 63 36 203 55 310 19 107 73 413 120 680 47
267 90 508 95 535 17 86 142 798 147 843 l6 42 -94 -1 c-52 -1 -132 -6 -179
-10z"/>
<path d="M11970 7510 c-302 -58 -599 -140 -745 -205 l-51 -22 -269 -621 c-147
-342 -269 -621 -271 -619 -1 1 -10 237 -20 525 l-18 523 -45 -7 c-112 -16
-359 -103 -671 -235 l-170 -72 0 -41 c-1 -23 23 -650 52 -1393 l53 -1353 481
0 c265 0 495 3 511 6 29 6 40 30 736 1772 389 972 707 1770 707 1775 0 15 -89
4 -280 -33z"/>
<path d="M1500 5470 c-162 -897 -260 -1464 -254 -1469 5 -5 248 -12 539 -16
l530 -7 218 1218 c120 671 217 1227 217 1237 0 26 -126 104 -350 216 -200 101
-599 281 -623 281 -9 0 -85 -400 -277 -1460z"/>
<path d="M9319 6605 c-244 -93 -519 -228 -769 -379 l-155 -93 -192 -1049
c-105 -577 -192 -1059 -192 -1071 l-1 -23 488 0 488 0 217 1313 c120 721 218
1318 217 1325 0 16 0 16 -101 -23z"/>
<path d="M3796 5733 c-7 -16 -44 -93 -81 -173 -97 -210 -95 -205 -424 -910
-166 -355 -301 -651 -301 -657 0 -9 17 -13 48 -14 26 -1 97 -2 157 -4 61 -2
292 -5 514 -7 l404 -3 36 81 c60 136 82 185 128 294 25 58 60 138 79 178 19
40 34 75 34 78 0 5 9 26 66 152 13 29 36 80 50 115 14 34 42 93 61 131 27 56
32 74 25 91 -24 52 -420 402 -661 584 l-120 91 -15 -27z"/>
<path d="M7392 5555 c-248 -151 -581 -386 -766 -540 l-68 -57 6 -67 c4 -36 9
-79 11 -96 2 -16 9 -64 15 -105 5 -41 12 -97 15 -125 3 -27 7 -61 10 -75 3
-14 7 -47 10 -75 11 -102 46 -371 51 -397 l6 -28 539 0 c447 0 539 2 539 14 0
7 -18 134 -40 282 -22 148 -49 330 -60 404 -22 156 -26 183 -45 305 -7 50 -16
110 -20 135 -34 246 -71 490 -76 494 -3 3 -60 -28 -127 -69z"/>
</g>
</svg>
